# xmcd
#
# Track frame offsets:
#	150
#	18382
#	32439
#	45745
#	61293
#	80120
#	95188
#	110162
#	127357
#	143939
#	160239
#	178124
#	190291
#	204056
#	219125
#	236118
#	251712
#	266333
#
# Disc length: 3797 seconds
#
# Revision: 2
# Processed by: cddbd v1.5.1PL0 Copyright (c) Steve Scherf et al.
# Submitted via: audiograbber 1.83.01
#
DISCID=0b0ed312
DTITLE=Various Artist - Top Hits USA RC87
DYEAR=2004
DGENRE=Country
TTITLE0=Keith Urban - You're My Better half
TTITLE1=Brad Paisley - Mud On The Tires
TTITLE2=Leann Rimes - Nuthin' 'Bout Love Makes Sense
TTITLE3=Alan Jackson - Monday Morning Church
TTITLE4=Gretchen Wilson - When I Think About Cheatin'
TTITLE5=Travis Tritt ft. John Mellencamp - What Say You
TTITLE6=Jimmy Buffett ft. Martina McBride - Trip Around The Sun
TTITLE7=Rascal Flatts - Bless The Broken Road
TTITLE8=Reba McEntire - He Gets That From Me
TTITLE9=Mongomery Gentry - You Do Your Thing
TTITLE10=Tracy Bird - Revenge Of A Middle-Aged Woman
TTITLE11=Josh Gracin - Nothin' To Lose
TTITLE12=Trick Pony - The Bride
TTITLE13=Clay Walker - Jesus Was A Country Boy
TTITLE14=Big and Rich - Holy Water
TTITLE15=Sonya Isaacs - No Regrets Yet
TTITLE16=Steve Holy - Put Your Best Dress On
TTITLE17=SheDaisy - Come Home Soon
EXTD=
EXTT0=
EXTT1=
EXTT2=
EXTT3=
EXTT4=
EXTT5=
EXTT6=
EXTT7=
EXTT8=
EXTT9=
EXTT10=
EXTT11=
EXTT12=
EXTT13=
EXTT14=
EXTT15=
EXTT16=
EXTT17=
PLAYORDER=
